<svg width="124" height="125" viewBox="0 0 124 125" fill="none" xmlns="http://www.w3.org/2000/svg">
<rect width="124" height="125" fill="black"/>
<path d="M89 45.8462H23C22.2044 45.8462 21.4413 46.1865 20.8787 46.7924C20.3161 47.3983 20 48.2201 20 49.0769V68.4615C20.009 73.9619 21.1012 79.3976 23.2047 84.4098C25.3081 89.422 28.3749 93.8967 32.2025 97.5385H23C22.2044 97.5385 21.4413 97.8788 20.8787 98.4847C20.3161 99.0906 20 99.9124 20 100.769C20 101.626 20.3161 102.448 20.8787 103.054C21.4413 103.66 22.2044 104 23 104H89C89.7956 104 90.5587 103.66 91.1213 103.054C91.6839 102.448 92 101.626 92 100.769C92 99.9124 91.6839 99.0906 91.1213 98.4847C90.5587 97.8788 89.7956 97.5385 89 97.5385H79.7975C84.3921 93.153 87.8761 87.5819 89.9225 81.3483C93.7329 81.0954 97.3104 79.2875 99.9261 76.2928C102.542 73.2981 103.999 69.3421 104 65.2308V62C104 57.7157 102.42 53.6069 99.6066 50.5775C96.7936 47.5481 92.9782 45.8462 89 45.8462ZM98 65.2308C97.9987 67.321 97.3699 69.3548 96.2075 71.0287C95.0451 72.7026 93.4114 73.927 91.55 74.5192C91.8473 72.5158 91.9978 70.4904 92 68.4615V52.865C93.7543 53.5329 95.2732 54.77 96.3477 56.4059C97.4222 58.0418 97.9994 59.9962 98 62V65.2308ZM53 36.1538V23.2308C53 22.3739 53.3161 21.5522 53.8787 20.9463C54.4413 20.3404 55.2044 20 56 20C56.7956 20 57.5587 20.3404 58.1213 20.9463C58.6839 21.5522 59 22.3739 59 23.2308V36.1538C59 37.0107 58.6839 37.8325 58.1213 38.4383C57.5587 39.0442 56.7956 39.3846 56 39.3846C55.2044 39.3846 54.4413 39.0442 53.8787 38.4383C53.3161 37.8325 53 37.0107 53 36.1538ZM65 36.1538V23.2308C65 22.3739 65.3161 21.5522 65.8787 20.9463C66.4413 20.3404 67.2044 20 68 20C68.7957 20 69.5587 20.3404 70.1213 20.9463C70.6839 21.5522 71 22.3739 71 23.2308V36.1538C71 37.0107 70.6839 37.8325 70.1213 38.4383C69.5587 39.0442 68.7957 39.3846 68 39.3846C67.2044 39.3846 66.4413 39.0442 65.8787 38.4383C65.3161 37.8325 65 37.0107 65 36.1538ZM41 36.1538V23.2308C41 22.3739 41.3161 21.5522 41.8787 20.9463C42.4413 20.3404 43.2044 20 44 20C44.7957 20 45.5587 20.3404 46.1213 20.9463C46.6839 21.5522 47 22.3739 47 23.2308V36.1538C47 37.0107 46.6839 37.8325 46.1213 38.4383C45.5587 39.0442 44.7957 39.3846 44 39.3846C43.2044 39.3846 42.4413 39.0442 41.8787 38.4383C41.3161 37.8325 41 37.0107 41 36.1538Z" fill="#F7F7F7"/>
</svg>
