<svg width="124" height="125" viewBox="0 0 124 125" fill="none" xmlns="http://www.w3.org/2000/svg">
<rect width="124" height="125" rx="30" fill="black"/>
<path d="M90.4286 47.3846H30.7143C29.9944 47.3846 29.304 47.6926 28.795 48.2408C28.286 48.7889 28 49.5324 28 50.3077V67.8462C28.0081 72.8226 28.9963 77.7407 30.8995 82.2755C32.8026 86.8104 35.5773 90.8589 39.0404 94.1538H30.7143C29.9944 94.1538 29.304 94.4618 28.795 95.01C28.286 95.5582 28 96.3017 28 97.0769C28 97.8522 28.286 98.5957 28.795 99.1439C29.304 99.692 29.9944 100 30.7143 100H90.4286C91.1484 100 91.8388 99.692 92.3479 99.1439C92.8569 98.5957 93.1429 97.8522 93.1429 97.0769C93.1429 96.3017 92.8569 95.5582 92.3479 95.01C91.8388 94.4618 91.1484 94.1538 90.4286 94.1538H82.1025C86.2595 90.1861 89.4118 85.1455 91.2632 79.5056C94.7107 79.2768 97.9475 77.641 100.314 74.9316C102.681 72.2221 103.999 68.6428 104 64.9231V62C104 58.1238 102.57 54.4063 100.025 51.6654C97.4799 48.9244 94.0279 47.3846 90.4286 47.3846ZM98.5714 64.9231C98.5702 66.8142 98.0013 68.6543 96.9497 70.1688C95.898 71.6833 94.4198 72.7911 92.7357 73.3269C93.0047 71.5143 93.1408 69.6817 93.1429 67.8462V53.735C94.73 54.3393 96.1043 55.4586 97.0765 56.9387C98.0486 58.4188 98.5709 60.187 98.5714 62V64.9231ZM57.8571 38.6154V26.9231C57.8571 26.1478 58.1431 25.4043 58.6521 24.8561C59.1612 24.308 59.8516 24 60.5714 24C61.2913 24 61.9817 24.308 62.4907 24.8561C62.9997 25.4043 63.2857 26.1478 63.2857 26.9231V38.6154C63.2857 39.3906 62.9997 40.1341 62.4907 40.6823C61.9817 41.2305 61.2913 41.5385 60.5714 41.5385C59.8516 41.5385 59.1612 41.2305 58.6521 40.6823C58.1431 40.1341 57.8571 39.3906 57.8571 38.6154ZM68.7143 38.6154V26.9231C68.7143 26.1478 69.0003 25.4043 69.5093 24.8561C70.0183 24.308 70.7087 24 71.4286 24C72.1484 24 72.8388 24.308 73.3479 24.8561C73.8569 25.4043 74.1429 26.1478 74.1429 26.9231V38.6154C74.1429 39.3906 73.8569 40.1341 73.3479 40.6823C72.8388 41.2305 72.1484 41.5385 71.4286 41.5385C70.7087 41.5385 70.0183 41.2305 69.5093 40.6823C69.0003 40.1341 68.7143 39.3906 68.7143 38.6154ZM47 38.6154V26.9231C47 26.1478 47.286 25.4043 47.795 24.8561C48.304 24.308 48.9944 24 49.7143 24C50.4342 24 51.1245 24.308 51.6336 24.8561C52.1426 25.4043 52.4286 26.1478 52.4286 26.9231V38.6154C52.4286 39.3906 52.1426 40.1341 51.6336 40.6823C51.1245 41.2305 50.4342 41.5385 49.7143 41.5385C48.9944 41.5385 48.304 41.2305 47.795 40.6823C47.286 40.1341 47 39.3906 47 38.6154Z" fill="#F7F7F7"/>
</svg>
